<?xml version="1.0" encoding="utf-8"?>
<!-- Generator: Adobe Illustrator 21.0.0, SVG Export Plug-In . SVG Version: 6.00 Build 0)  -->
<svg version="1.1" id="Layer_1" xmlns="http://www.w3.org/2000/svg" xmlns:xlink="http://www.w3.org/1999/xlink" x="0px" y="0px"
	 viewBox="0 0 30 30" style="enable-background:new 0 0 30 30;" xml:space="preserve">
<style type="text/css">
	.st0{fill:#D87102;}
</style>
<path class="st0" d="M24.5,0h-2.7v8.2c0,0.8-0.5,1.4-1.4,1.4H8.2C7.4,9.5,6.8,9,6.8,8.2V0H2.7C1.2,0,0,1.2,0,2.7v24.5
	C0,28.8,1.2,30,2.7,30h24.5c1.5,0,2.7-1.2,2.7-2.7V5.5L24.5,0z M24.5,27.3H5.5v-8.2c0-1.5,1.2-2.7,2.7-2.7h13.6
	c1.5,0,2.7,1.2,2.7,2.7V27.3z"/>
<rect x="16.4" class="st0" width="2.7" height="6.8"/>
</svg>
